<?xml version="1.0" encoding="UTF-8" standalone="no"?>
<!-- Created with Inkscape (http://www.inkscape.org/) -->

<svg
   width="121.41093mm"
   height="115.79118mm"
   viewBox="0 0 121.41093 115.79119"
   version="1.1"
   id="svg1"
   xml:space="preserve"
   inkscape:version="1.3.2 (091e20e, 2023-11-25, custom)"
   sodipodi:docname="Oficina do Celular.svg"
   xmlns:inkscape="http://www.inkscape.org/namespaces/inkscape"
   xmlns:sodipodi="http://sodipodi.sourceforge.net/DTD/sodipodi-0.dtd"
   xmlns="http://www.w3.org/2000/svg"
   xmlns:svg="http://www.w3.org/2000/svg"><sodipodi:namedview
     id="namedview1"
     pagecolor="#505050"
     bordercolor="#eeeeee"
     borderopacity="1"
     inkscape:showpageshadow="0"
     inkscape:pageopacity="0"
     inkscape:pagecheckerboard="0"
     inkscape:deskcolor="#505050"
     inkscape:document-units="mm"
     showgrid="false"
     showguides="true"
     inkscape:lockguides="false"
     inkscape:zoom="0.49620511"
     inkscape:cx="1171.8944"
     inkscape:cy="2262.1694"
     inkscape:window-width="1366"
     inkscape:window-height="697"
     inkscape:window-x="-8"
     inkscape:window-y="-8"
     inkscape:window-maximized="1"
     inkscape:current-layer="layer1"><inkscape:grid
       id="grid32"
       units="mm"
       originx="563.11965"
       originy="-567.69851"
       spacingx="0.99999998"
       spacingy="1"
       empcolor="#0099e5"
       empopacity="0.30196078"
       color="#0099e5"
       opacity="0.14901961"
       empspacing="5"
       dotted="false"
       gridanglex="30"
       gridanglez="30"
       visible="false" /><sodipodi:guide
       position="-10.08492,1149.5959"
       orientation="0,-1"
       id="guide32"
       inkscape:locked="false" /><sodipodi:guide
       position="-17.52032,1080.7417"
       orientation="1,0"
       id="guide33"
       inkscape:locked="false" /><sodipodi:guide
       position="549.46384,837.33134"
       orientation="0,-1"
       id="guide34"
       inkscape:locked="false" /><sodipodi:guide
       position="154.03238,1072.0698"
       orientation="1,0"
       id="guide35"
       inkscape:locked="false" /><sodipodi:guide
       position="258.12152,1036.5546"
       orientation="0,-1"
       id="guide75"
       inkscape:locked="false" /><sodipodi:guide
       position="399.42313,937.37684"
       orientation="0,-1"
       id="guide76"
       inkscape:locked="false" /><sodipodi:guide
       position="259.18794,1118.6695"
       orientation="1,0"
       id="guide80"
       inkscape:locked="false" /><sodipodi:guide
       position="436.21487,882.98907"
       orientation="1,0"
       id="guide91"
       inkscape:locked="false" /><sodipodi:guide
       position="405.51743,737.2592"
       orientation="0,-1"
       id="guide97"
       inkscape:locked="false" /><sodipodi:guide
       position="637.64405,847.04221"
       orientation="1,0"
       id="guide3"
       inkscape:locked="false" /></sodipodi:namedview><defs
     id="defs1" /><g
     inkscape:label="Camada 1"
     inkscape:groupmode="layer"
     id="layer1"
     transform="translate(563.11972,-567.69836)"><g
       id="change1_1"
       transform="matrix(0.26458333,0,0,0.26458333,-563.11972,551.19787)"><path
         d="m 1.51,441.02 c 0.93,-0.93 2.22,-1.51 3.63,-1.51 0.85,0 1.66,0.21 2.37,0.59 0.74,0.39 1.37,0.94 1.84,1.62 0.14,0.19 0.31,0.35 0.5,0.45 0.19,0.1 0.41,0.15 0.66,0.15 8.62,0 92.84,0.51 93.6,-0.14 24.8,-23.05 50.99,-50.01 75.31,-75.04 1.18,-1.21 9.56,-9.23 9.6,-10.04 v 0 -176.44 c 0,-0.24 -0.05,-0.47 -0.15,-0.66 -0.1,-0.19 -0.25,-0.36 -0.45,-0.5 -0.68,-0.47 -1.24,-1.1 -1.62,-1.84 -0.38,-0.72 -0.59,-1.53 -0.59,-2.37 0,-1.42 0.58,-2.7 1.51,-3.63 0.93,-0.93 2.22,-1.51 3.63,-1.51 1.42,0 2.7,0.58 3.63,1.51 0.93,0.93 1.51,2.22 1.51,3.63 0,0.85 -0.21,1.66 -0.59,2.37 -0.39,0.74 -0.94,1.37 -1.62,1.84 -0.19,0.14 -0.35,0.31 -0.45,0.5 -0.1,0.19 -0.15,0.41 -0.15,0.66 v 176.42 c 0,0.1 0,0.22 -0.01,0.38 -0.01,0.14 -0.02,0.26 -0.04,0.37 -0.02,0.11 -0.09,0.38 -0.09,0.45 l -0.77,-0.17 0.77,0.18 -0.01,0.03 v 0 0.01 0 0.01 l -1.01,-0.24 1,0.27 -0.05,0.19 -1.18,-0.32 1.16,0.4 -0.08,0.23 -1.06,-0.36 1.04,0.43 -0.05,0.13 -0.96,-0.38 0.94,0.41 c -0.05,0.12 -0.11,0.24 -0.17,0.36 l -0.03,0.06 -0.34,-0.18 0.34,0.18 v 0 l -0.06,-0.03 0.06,0.03 -0.09,0.16 -0.08,0.13 -0.91,-0.56 0.9,0.59 -0.02,0.03 -0.59,-0.39 0.58,0.41 -0.08,0.11 -0.65,-0.45 0.65,0.46 v 0 l -0.52,-0.36 0.51,0.36 c -2.42,3.39 -22.25,23.71 -42.29,43.75 -11.9,11.9 -23.9,23.73 -32.4,31.88 l -4.05,3.86 c -3.68,3.47 -6.27,5.82 -7.3,6.55 l -0.45,-0.63 0.44,0.64 v 0 l -0.26,-0.37 0.26,0.38 -0.05,0.03 -0.15,-0.22 0.15,0.22 -0.08,0.05 -0.3,-0.43 0.29,0.44 -0.03,0.02 -0.59,-0.9 0.56,0.91 -0.3,0.18 -0.02,-0.04 0.02,0.04 -0.06,0.03 v 0 c -0.11,0.05 -0.26,0.13 -0.36,0.17 l -0.41,-0.94 0.38,0.96 -0.13,0.05 -0.33,-0.81 0.3,0.82 c -0.11,0.04 -0.21,0.08 -0.3,0.1 h -0.01 c -0.15,0.05 -0.26,0.08 -0.31,0.09 v 0 c -0.13,0.03 -0.23,0.05 -0.36,0.07 l -0.01,0.01 -0.09,0.01 c -0.11,0.02 -0.23,0.03 -0.37,0.04 -0.15,0.01 -0.28,0.01 -0.37,0.01 H 10.51 c -0.24,0 -0.47,0.05 -0.66,0.15 -0.19,0.1 -0.36,0.25 -0.5,0.45 -0.47,0.68 -1.11,1.24 -1.84,1.62 -0.72,0.38 -1.53,0.59 -2.37,0.59 -1.42,0 -2.7,-0.58 -3.63,-1.51 C 0.58,447.36 0,446.08 0,444.66 c 0,-1.42 0.58,-2.7 1.51,-3.64 m 3.63,-55.1 c -2.06,0 -3.74,1.68 -3.74,3.74 0,2.06 1.68,3.74 3.74,3.74 1.74,0 3.21,-1.2 3.62,-2.81 h 80.41 c 0.17,0 0.36,-0.01 0.53,-0.04 v 0 l 0.1,-0.01 c 0.09,-0.01 0.18,-0.03 0.26,-0.05 h -0.01 c 0.16,-0.04 0.31,-0.08 0.46,-0.14 H 90.5 l 0.13,-0.05 v 0 l 0.04,-0.02 v 0 c 0.07,-0.03 0.15,-0.07 0.22,-0.11 v 0 l 0.07,-0.04 v 0 c 0.07,-0.04 0.15,-0.08 0.22,-0.13 v 0 l 0.03,-0.02 v 0 l 0.08,-0.05 -0.01,0.01 0.05,-0.03 v 0 c 5.31,-3.79 54.43,-52.91 58.22,-58.22 v 0 l 0.08,-0.11 v 0 l 0.02,-0.03 v 0 c 0.05,-0.07 0.09,-0.15 0.13,-0.22 v 0 l 0.03,-0.07 v 0 c 0.04,-0.07 0.11,-0.22 0.11,-0.22 l 0.02,-0.04 v 0 l 0.05,-0.13 v 0.01 l 0.08,-0.23 v 0.01 l 0.05,-0.19 v 0.01 l 0.01,-0.04 v 0.01 c 0.02,-0.08 0.05,-0.26 0.05,-0.25 l 0.02,-0.1 v 0 c 0.03,-0.17 0.04,-0.36 0.04,-0.53 V 102.59 c 1.61,-0.42 2.81,-1.89 2.81,-3.62 0,-2.06 -1.68,-3.74 -3.74,-3.74 -2.06,0 -3.74,1.68 -3.74,3.74 0,1.74 1.2,3.21 2.81,3.62 v 227 0 0.04 0 0.08 -0.01 l -0.02,0.18 v -0.01 l -0.01,0.04 v -0.02 l -0.02,0.09 v -0.01 l -0.01,0.03 v -0.01 l -0.01,0.05 v -0.01 l -0.03,0.1 c 0,-0.03 0,0.01 -0.01,0.02 v -0.01 l -0.04,0.11 v 0 l -0.02,0.05 v 0 l -0.01,0.02 v -0.01 l -0.03,0.07 v 0 l -0.02,0.05 v 0 l -0.02,0.03 v 0 0.01 0 l -0.01,0.03 v 0 l -0.03,0.05 v 0 l -0.02,0.03 v 0 l -0.01,0.02 v 0 l -0.01,0.02 v -0.01 l -0.04,0.06 0.01,-0.01 -0.02,0.03 0.01,-0.01 -0.03,0.03 0.01,-0.01 -0.09,0.11 0.01,-0.01 -0.05,0.05 0.01,-0.01 -0.07,0.07 0.01,-0.01 c -18.2,18.7 -38.39,39.72 -57.37,57.37 -0.01,0.01 -0.04,0.04 -0.02,0.02 l -0.05,0.05 0.01,-0.01 c -0.05,0.04 -0.1,0.08 -0.16,0.12 l 0.01,-0.01 -0.06,0.04 h 0.01 l -0.02,0.01 v 0 l -0.02,0.01 v 0 l -0.03,0.02 v 0 l -0.05,0.03 v 0 l -0.03,0.01 v 0 L 90,388.58 v 0 l -0.11,0.05 h 0.01 l -0.02,0.01 v 0 l -0.07,0.03 h 0.01 l -0.02,0.01 h 0.01 l -0.1,0.03 h 0.01 l -0.1,0.03 h 0.01 l -0.03,0.01 h 0.01 l -0.14,0.03 h 0.02 l -0.09,0.01 h 0.01 l -0.13,0.01 h 0.01 -0.08 v 0 h -0.04 v 0 H 8.77 c -0.42,-1.68 -1.89,-2.88 -3.63,-2.88 z m 0,-65.1 c -2.06,0 -3.74,1.68 -3.74,3.74 0,2.06 1.68,3.74 3.74,3.74 1.74,0 3.21,-1.2 3.62,-2.81 h 63.58 c 0.17,0 0.36,-0.01 0.53,-0.04 v 0 l 0.1,-0.01 c 0.09,-0.01 0.18,-0.03 0.26,-0.05 h -0.01 c 0.16,-0.04 0.31,-0.08 0.46,-0.14 h -0.01 l 0.13,-0.05 v 0 l 0.04,-0.02 v 0 c 0.07,-0.03 0.15,-0.07 0.22,-0.11 v 0 l 0.07,-0.04 v 0 c 0.07,-0.04 0.15,-0.08 0.22,-0.13 v 0 l 0.03,-0.02 v 0 l 0.08,-0.05 -0.01,0.01 0.05,-0.03 v 0 c 3.85,-2.74 25.73,-24.63 28.48,-28.48 v 0 l 0.08,-0.11 v 0 l 0.02,-0.03 v 0 c 0.05,-0.07 0.09,-0.15 0.13,-0.22 v 0 l 0.03,-0.07 v 0 c 0.04,-0.07 0.11,-0.22 0.11,-0.22 l 0.02,-0.04 v 0 l 0.05,-0.13 v 0.01 l 0.08,-0.23 v 0.01 l 0.05,-0.19 v 0.01 l 0.01,-0.04 v 0.01 c 0.02,-0.08 0.05,-0.26 0.05,-0.25 l 0.02,-0.1 v 0 c 0.03,-0.17 0.04,-0.36 0.04,-0.53 V 162.07 c 1.61,-0.42 2.81,-1.89 2.81,-3.62 0,-2.06 -1.68,-3.74 -3.74,-3.74 -2.06,0 -3.74,1.68 -3.74,3.74 0,1.74 1.2,3.21 2.81,3.62 v 132.16 0 0.04 0 0.08 -0.01 l -0.02,0.18 v -0.01 l -0.01,0.04 v -0.02 l -0.02,0.09 v -0.01 l -0.01,0.03 v -0.01 l -0.01,0.05 v -0.01 l -0.03,0.1 c 0,-0.03 0,0.01 -0.01,0.02 v -0.01 l -0.04,0.11 v 0 l -0.02,0.05 v 0 l -0.01,0.02 v -0.01 l -0.03,0.07 v 0 l -0.02,0.05 v 0 l -0.02,0.03 v 0 0.01 0 l -0.01,0.03 v 0 l -0.03,0.05 v 0 l -0.02,0.03 v 0 l -0.01,0.02 v 0 l -0.01,0.02 v -0.01 l -0.04,0.06 0.01,-0.01 -0.02,0.03 0.01,-0.01 -0.03,0.03 0.01,-0.01 -0.09,0.11 0.01,-0.01 -0.05,0.05 0.01,-0.01 -0.07,0.07 0.01,-0.01 c -8.76,9 -18.49,19.13 -27.63,27.62 -0.01,0.01 -0.04,0.04 -0.02,0.02 l -0.05,0.05 0.01,-0.01 c -0.05,0.04 -0.1,0.08 -0.16,0.12 l 0.01,-0.01 -0.06,0.04 h 0.01 l -0.02,0.01 v 0 l -0.02,0.01 v 0 l -0.03,0.02 v 0 l -0.05,0.03 v 0 l -0.03,0.01 v 0 l -0.03,0.02 v 0 l -0.11,0.05 h 0.01 l -0.02,0.01 v 0 L 73,323.52 h 0.01 l -0.02,0.01 H 73 l -0.1,0.03 h 0.01 l -0.1,0.03 h 0.01 l -0.03,0.01 h 0.01 l -0.14,0.03 h 0.02 l -0.09,0.01 h 0.01 l -0.13,0.01 h 0.01 -0.08 v 0 h -0.04 v 0 H 8.77 C 8.35,322.02 6.88,320.82 5.14,320.82 Z M 247.85,208.96 c 0,-2.06 -1.68,-3.74 -3.74,-3.74 -2.06,0 -3.74,1.68 -3.74,3.74 0,1.74 1.2,3.21 2.81,3.62 v 135.51 c 0,0.17 0.01,0.36 0.04,0.53 v 0 l 0.01,0.1 c 0.01,0.09 0.03,0.18 0.05,0.26 v -0.01 c 0.04,0.16 0.08,0.31 0.14,0.46 v -0.01 l 0.05,0.13 v 0 l 0.02,0.04 v 0 c 0.03,0.07 0.07,0.15 0.11,0.22 v 0 l 0.03,0.07 v 0 c 0.04,0.07 0.08,0.15 0.13,0.22 v 0 l 0.02,0.03 v 0 l 0.05,0.08 -0.01,-0.01 0.03,0.05 v 0 c 2.39,3.35 16.71,17.67 20.06,20.06 v 0 l 0.11,0.08 v 0 l 0.03,0.02 v 0 c 0.07,0.05 0.15,0.09 0.22,0.13 v 0 l 0.07,0.03 v 0 c 0.07,0.04 0.22,0.11 0.22,0.11 l 0.04,0.02 v 0 l 0.13,0.05 h -0.01 l 0.23,0.08 h -0.01 l 0.19,0.05 h -0.01 l 0.04,0.01 h -0.01 c 0.08,0.02 0.26,0.05 0.25,0.05 l 0.1,0.02 v 0 c 0.17,0.03 0.36,0.04 0.53,0.04 h 73.44 c 0.17,0 0.36,-0.01 0.53,-0.04 v 0 l 0.1,-0.01 c 0.09,-0.01 0.18,-0.03 0.26,-0.05 h -0.01 c 0.16,-0.04 0.31,-0.08 0.46,-0.14 h -0.01 l 0.13,-0.05 v 0 l 0.04,-0.02 v 0 c 0.07,-0.03 0.15,-0.07 0.22,-0.11 v 0 l 0.07,-0.03 v 0 c 0.07,-0.04 0.15,-0.08 0.22,-0.13 v 0 l 0.03,-0.02 v 0 l 0.08,-0.05 -0.01,0.01 0.05,-0.03 v 0 c 4.36,-3.11 35.19,-33.94 38.3,-38.3 v 0 l 0.08,-0.11 v 0 l 0.02,-0.03 v 0 c 0.05,-0.07 0.09,-0.15 0.13,-0.22 v 0 l 0.03,-0.07 v 0 c 0.04,-0.07 0.11,-0.22 0.11,-0.22 l 0.02,-0.04 v 0 l 0.05,-0.13 v 0.01 l 0.08,-0.23 V 331 l 0.05,-0.19 v 0.01 l 0.01,-0.04 v 0.01 c 0.02,-0.08 0.05,-0.26 0.05,-0.25 l 0.02,-0.1 v 0 c 0.03,-0.17 0.04,-0.36 0.04,-0.53 V 130.89 c 0,-0.06 0,-0.21 0.02,-0.26 0.02,-0.12 0.04,-0.23 0.08,-0.35 0.04,-0.12 0.08,-0.2 0.14,-0.31 v 0 l 0.01,-0.02 v 0 l 0.01,-0.02 v 0 l 0.03,-0.05 v 0 l 0.01,-0.02 v 0 l 0.02,-0.02 v 0 l 0.05,-0.07 v 0 l 0.05,-0.07 v 0 l 0.06,-0.07 v 0 l 0.12,-0.12 v 0 l 0.05,-0.04 v 0 l 0.02,-0.02 v 0 l 0.08,-0.06 c 19.4,-13.51 49.72,-28.73 71.1,-41.07 1.17,1.19 3.02,1.48 4.54,0.62 1.79,-1.04 2.39,-3.31 1.37,-5.11 -1.04,-1.79 -3.31,-2.39 -5.11,-1.37 -1.51,0.88 -2.18,2.63 -1.73,4.24 l -70.88,40.92 c -1.18,0.69 -1.87,1.87 -1.87,3.24 v 198.98 0 0.04 0 0.08 -0.01 l -0.02,0.18 v -0.01 l -0.01,0.04 v -0.02 l -0.02,0.09 v -0.01 l -0.01,0.03 v -0.01 l -0.01,0.05 v -0.01 l -0.03,0.1 c 0,-0.03 0,0.01 -0.01,0.02 v -0.01 l -0.04,0.11 v 0 l -0.02,0.05 v 0 l -0.01,0.02 v -0.01 l -0.03,0.07 v 0 l -0.02,0.05 v 0 l -0.02,0.03 v 0 0.01 0 l -0.01,0.03 v 0 l -0.03,0.05 v 0 l -0.02,0.03 v 0 l -0.01,0.02 v 0 l -0.01,0.02 v -0.01 l -0.04,0.06 0.01,-0.01 -0.02,0.03 0.01,-0.01 -0.03,0.03 0.01,-0.01 -0.09,0.11 0.01,-0.01 -0.05,0.05 0.01,-0.01 -0.07,0.07 0.01,-0.01 c -11.88,12.2 -25.06,25.93 -37.45,37.45 -0.01,0.01 -0.04,0.04 -0.02,0.02 l -0.05,0.05 0.01,-0.01 c -0.05,0.04 -0.1,0.08 -0.16,0.12 l 0.01,-0.01 -0.06,0.04 h 0.01 l -0.02,0.01 v 0 l -0.02,0.01 v 0 l -0.03,0.02 v 0 l -0.05,0.03 v 0 l -0.03,0.01 v 0 l -0.03,0.02 v 0 l -0.11,0.05 h 0.01 l -0.02,0.01 v 0 l -0.07,0.03 h 0.01 l -0.02,0.01 h 0.01 l -0.1,0.03 h 0.01 l -0.1,0.03 h 0.01 l -0.03,0.01 h 0.01 l -0.14,0.03 h 0.02 l -0.09,0.01 h 0.01 l -0.13,0.01 h 0.01 -0.08 v 0 h -0.04 v 0 h -73.47 v 0 h -0.04 v 0 h -0.08 v 0 l -0.18,-0.02 h 0.01 l -0.04,-0.01 h 0.02 l -0.09,-0.02 h 0.01 l -0.03,-0.01 h 0.01 l -0.05,-0.01 h 0.01 l -0.1,-0.03 c 0.03,0 -0.01,0 -0.02,-0.01 h 0.01 l -0.11,-0.04 v 0 l -0.05,-0.02 v 0 l -0.02,-0.01 h 0.01 l -0.07,-0.03 v 0 l -0.05,-0.02 v 0 l -0.03,-0.02 v 0 h -0.01 v 0 l -0.03,-0.01 v 0 l -0.05,-0.03 v 0 l -0.03,-0.02 v 0 l -0.02,-0.01 v 0 l -0.02,-0.01 H 265 l -0.06,-0.04 0.01,0.01 -0.03,-0.02 0.01,0.01 -0.03,-0.03 0.01,0.01 -0.11,-0.09 0.01,0.01 -0.05,-0.05 0.01,0.01 -0.07,-0.07 0.01,0.01 c -6.26,-6.09 -13.3,-12.85 -19.21,-19.21 -0.01,-0.01 -0.04,-0.04 -0.02,-0.02 l -0.05,-0.05 0.01,0.01 c -0.04,-0.05 -0.08,-0.1 -0.12,-0.16 l 0.01,0.01 -0.04,-0.06 v 0.01 l -0.01,-0.02 v 0 l -0.01,-0.02 v 0 l -0.02,-0.03 v 0 l -0.03,-0.05 v 0 l -0.01,-0.03 v 0 l -0.02,-0.03 v 0 l -0.05,-0.11 v 0.01 l -0.01,-0.02 v 0 l -0.03,-0.07 v 0.01 l -0.01,-0.02 v 0.01 l -0.03,-0.1 v 0.01 l -0.03,-0.1 v 0.01 l -0.01,-0.03 v 0.01 l -0.03,-0.14 v 0.02 l -0.01,-0.09 v 0.01 l -0.01,-0.13 v 0 -0.08 0 -0.04 0 -135.49 c 1.68,-0.42 2.88,-1.88 2.88,-3.62 z m 18.33,132.44 c 0,2.06 1.68,3.74 3.74,3.74 2.06,0 3.74,-1.68 3.74,-3.74 0,-1.74 -1.2,-3.21 -2.81,-3.62 v -71.55 0 -0.04 0 -0.08 0 l 0.02,-0.18 v 0.01 l 0.01,-0.04 v 0.02 l 0.02,-0.09 v 0.01 l 0.01,-0.03 v 0.01 l 0.01,-0.05 v 0.01 l 0.03,-0.1 c 0,0.03 0,-0.01 0.01,-0.02 v 0.01 l 0.04,-0.11 v 0 l 0.02,-0.05 v 0 l 0.01,-0.02 v 0.01 l 0.03,-0.07 v 0 l 0.02,-0.05 v 0 l 0.02,-0.03 v 0 -0.01 0 l 0.01,-0.03 v 0 l 0.03,-0.05 v 0 l 0.02,-0.03 v 0 l 0.01,-0.02 v 0 l 0.01,-0.02 v 0.01 l 0.04,-0.06 -0.01,0.01 0.02,-0.03 -0.01,0.01 0.03,-0.03 -0.01,0.01 0.09,-0.11 -0.01,0.01 0.05,-0.05 -0.01,0.01 0.07,-0.07 -0.01,0.01 c 13.27,-13.63 45.62,-41.95 54.93,-55.01 v 0 l 0.08,-0.11 v 0 l 0.02,-0.03 v 0 c 0.05,-0.07 0.09,-0.15 0.13,-0.22 v 0 l 0.04,-0.07 v 0 c 0.04,-0.07 0.11,-0.22 0.11,-0.22 l 0.02,-0.04 v 0 l 0.05,-0.13 v 0.01 l 0.08,-0.23 v 0.01 l 0.05,-0.19 v 0.01 l 0.01,-0.04 v 0.01 c 0.02,-0.08 0.05,-0.26 0.05,-0.25 l 0.02,-0.1 v 0 c 0.03,-0.17 0.04,-0.36 0.04,-0.53 v -92.62 c 0,-0.06 0,-0.21 0.02,-0.26 0.02,-0.12 0.04,-0.23 0.08,-0.35 0.04,-0.12 0.08,-0.2 0.14,-0.31 v 0 l 0.01,-0.02 v 0 l 0.01,-0.02 v 0 l 0.03,-0.05 v 0 l 0.01,-0.02 v 0 l 0.02,-0.02 v 0 l 0.05,-0.07 v 0 l 0.05,-0.07 v 0 l 0.06,-0.07 v 0 l 0.12,-0.12 v 0 l 0.05,-0.04 v 0 l 0.02,-0.02 v 0 l 0.08,-0.06 c 21.22,-14.78 54.42,-31.44 77.81,-44.94 1.17,1.19 3.02,1.48 4.54,0.62 1.79,-1.04 2.39,-3.31 1.37,-5.11 -1.04,-1.79 -3.31,-2.39 -5.11,-1.37 -1.51,0.88 -2.18,2.63 -1.73,4.24 l -77.58,44.79 c -1.18,0.69 -1.87,1.87 -1.87,3.24 v 92.64 0 0.04 0 0.08 -0.01 l -0.02,0.18 v -0.01 l -0.01,0.04 v -0.02 l -0.02,0.09 v -0.01 l -0.01,0.03 v -0.01 l -0.01,0.05 v -0.01 l -0.03,0.1 c 0,-0.03 0,0.01 -0.01,0.02 v -0.01 l -0.04,0.11 v 0 l -0.02,0.05 v 0 l -0.01,0.02 v -0.01 l -0.03,0.07 v 0 l -0.02,0.05 v 0 l -0.02,0.03 v 0 0.01 0 l -0.01,0.03 v 0 l -0.03,0.05 v 0 l -0.02,0.03 v 0 l -0.01,0.02 v 0 l -0.01,0.02 v -0.01 l -0.04,0.06 0.01,-0.01 -0.02,0.03 0.01,-0.01 -0.03,0.03 0.01,-0.01 -0.09,0.11 0.01,-0.01 -0.05,0.05 0.01,-0.01 -0.07,0.07 0.01,-0.01 c -13.27,13.63 -45.62,41.95 -54.93,55.01 v 0 l -0.08,0.11 v 0 l -0.02,0.03 v 0 c -0.05,0.07 -0.09,0.15 -0.13,0.22 v 0 l -0.03,0.07 v 0 c -0.04,0.07 -0.11,0.22 -0.11,0.22 l -0.02,0.04 v 0 l -0.05,0.13 v -0.01 l -0.08,0.23 v -0.01 l -0.05,0.19 v -0.01 l -0.01,0.04 v -0.01 c -0.02,0.08 -0.05,0.26 -0.05,0.25 l -0.02,0.1 v 0 c -0.03,0.17 -0.04,0.36 -0.04,0.53 v 71.54 c -1.66,0.44 -2.86,1.91 -2.86,3.65 z m -51.63,-85.3 c 0,2.06 1.68,3.74 3.74,3.74 2.06,0 3.74,-1.68 3.74,-3.74 0,-1.74 -1.2,-3.21 -2.81,-3.62 V 151.09 c 0,-0.06 0,-0.21 0.02,-0.26 0.02,-0.12 0.04,-0.23 0.08,-0.35 0.04,-0.12 0.08,-0.2 0.14,-0.31 v 0 l 0.01,-0.02 v 0 l 0.01,-0.02 v 0 l 0.03,-0.05 v 0 l 0.01,-0.02 v 0 l 0.02,-0.02 v 0 l 0.05,-0.07 v 0 l 0.05,-0.07 v 0 l 0.06,-0.07 v 0 l 0.12,-0.12 v 0 l 0.05,-0.04 v 0 l 0.02,-0.02 v 0 l 0.08,-0.06 c 26.93,-18.75 69.11,-39.92 98.79,-57.06 1.17,1.19 3.02,1.48 4.54,0.62 1.79,-1.04 2.39,-3.31 1.37,-5.11 -1.04,-1.79 -3.31,-2.39 -5.11,-1.37 -1.51,0.88 -2.18,2.63 -1.73,4.24 l -98.57,56.91 c -1.18,0.69 -1.87,1.87 -1.87,3.24 v 101.38 c -1.64,0.45 -2.84,1.92 -2.84,3.66 z M 161.8,206.71 c 0,2.06 1.68,3.74 3.74,3.74 2.06,0 3.74,-1.68 3.74,-3.74 0,-1.74 -1.2,-3.21 -2.81,-3.62 v -84.55 c 0,-0.06 0,-0.21 0.02,-0.26 0.02,-0.12 0.04,-0.23 0.08,-0.35 0.04,-0.12 0.08,-0.2 0.14,-0.31 v 0 l 0.01,-0.02 v 0 l 0.01,-0.02 v 0 l 0.03,-0.05 v 0 l 0.01,-0.02 v 0 l 0.02,-0.02 v 0 l 0.05,-0.07 v 0 l 0.05,-0.07 v 0 l 0.06,-0.07 v 0 l 0.12,-0.12 v 0 l 0.05,-0.04 v 0 l 0.02,-0.02 v 0 l 0.08,-0.06 c 20.46,-14.24 52.44,-30.3 74.99,-43.31 1.17,1.19 3.02,1.48 4.54,0.62 1.79,-1.04 2.39,-3.31 1.37,-5.11 -1.04,-1.79 -3.31,-2.39 -5.11,-1.37 -1.51,0.88 -2.18,2.63 -1.73,4.24 l -74.76,43.17 c -1.18,0.69 -1.87,1.87 -1.87,3.24 v 84.55 c -1.65,0.44 -2.85,1.91 -2.85,3.64 z m 44.15,255.53 c -2.06,0 -3.74,1.68 -3.74,3.74 0,2.06 1.68,3.74 3.74,3.74 1.74,0 3.21,-1.2 3.62,-2.81 h 179.29 c 0.17,0 0.36,-0.01 0.53,-0.04 v 0 l 0.1,-0.01 c 0.09,-0.01 0.18,-0.03 0.26,-0.05 h -0.01 c 0.16,-0.04 0.31,-0.08 0.46,-0.14 h -0.01 l 0.13,-0.05 v 0 l 0.04,-0.02 v 0 c 0.07,-0.03 0.15,-0.07 0.22,-0.11 v 0 l 0.07,-0.03 v 0 c 0.07,-0.04 0.15,-0.08 0.22,-0.13 v 0 l 0.03,-0.02 v 0 l 0.08,-0.05 -0.01,0.01 0.05,-0.03 v 0 c 13.48,-9.61 46.58,-46.5 60.59,-60.51 1.43,0.84 3.32,0.65 4.55,-0.58 1.46,-1.46 1.46,-3.84 0,-5.29 -1.46,-1.46 -3.84,-1.46 -5.29,0 -1.23,1.23 -1.42,3.11 -0.58,4.55 -19.66,19.66 -39.94,41.36 -60.14,60.14 -0.01,0.01 -0.04,0.04 -0.02,0.02 l -0.05,0.05 0.01,-0.01 c -0.05,0.04 -0.1,0.08 -0.16,0.12 l 0.01,-0.01 -0.06,0.04 h 0.01 l -0.02,0.01 v 0 l -0.02,0.01 v 0 l -0.03,0.02 v 0 l -0.05,0.03 v 0 l -0.03,0.01 v 0 l -0.03,0.02 v 0 l -0.11,0.05 h 0.01 l -0.02,0.01 v 0 l -0.07,0.03 h 0.01 l -0.02,0.01 h 0.01 l -0.1,0.03 h 0.01 l -0.1,0.03 h 0.01 L 389.3,465 h 0.01 l -0.14,0.03 h 0.02 l -0.09,0.01 h 0.01 l -0.13,0.01 h 0.01 -0.08 v 0 h -0.04 v 0 h -179.3 c -0.42,-1.61 -1.88,-2.81 -3.62,-2.81 z M 5.14,492.52 c -2.06,0 -3.74,1.68 -3.74,3.74 0,2.06 1.69,3.74 3.74,3.74 1.74,0 3.21,-1.2 3.62,-2.81 h 118.58 c 0.17,0 0.36,-0.01 0.53,-0.04 v 0 l 0.1,-0.01 c 0.09,-0.01 0.18,-0.03 0.26,-0.05 h -0.01 c 0.16,-0.04 0.31,-0.08 0.46,-0.14 h -0.01 l 0.13,-0.05 v 0 l 0.04,-0.02 v 0 c 0.07,-0.03 0.15,-0.07 0.22,-0.11 v 0 l 0.07,-0.03 v 0 c 0.07,-0.04 0.15,-0.08 0.22,-0.13 v 0 l 0.03,-0.02 v 0 l 0.08,-0.05 -0.01,0.01 0.05,-0.03 v 0 c 17.75,-12.65 50.87,-52.11 69.62,-69.54 0.01,-0.01 0.04,-0.04 0.02,-0.02 l 0.05,-0.05 -0.01,0.01 c 0.05,-0.04 0.1,-0.08 0.16,-0.12 l -0.01,0.01 0.06,-0.04 h -0.01 l 0.02,-0.01 v 0 l 0.02,-0.01 v 0 l 0.03,-0.02 v 0 l 0.05,-0.03 v 0 l 0.03,-0.01 v 0 l 0.03,-0.02 v 0 l 0.11,-0.05 h -0.01 l 0.02,-0.01 v 0 l 0.07,-0.03 h -0.01 l 0.02,-0.01 h -0.01 l 0.1,-0.03 h -0.01 l 0.1,-0.03 h -0.01 l 0.03,-0.01 h -0.01 l 0.14,-0.03 h -0.02 l 0.09,-0.01 h -0.01 l 0.13,-0.01 h -0.01 0.08 v 0 h 0.04 v 0 h 167.19 c 0.17,0 0.36,-0.01 0.53,-0.04 v 0 l 0.1,-0.01 c 0.09,-0.01 0.18,-0.03 0.26,-0.05 h -0.01 c 0.16,-0.04 0.31,-0.08 0.46,-0.14 h -0.01 l 0.13,-0.05 v 0 l 0.04,-0.02 v 0 c 0.07,-0.03 0.15,-0.07 0.22,-0.11 v 0 l 0.07,-0.03 v 0 c 0.07,-0.04 0.15,-0.08 0.22,-0.13 v 0 l 0.03,-0.02 v 0 l 0.08,-0.05 -0.01,0.01 0.05,-0.03 v 0 c 5.53,-3.94 58.76,-57.18 62.7,-62.7 v 0 l 0.08,-0.11 v 0 l 0.02,-0.03 v 0 c 0.05,-0.07 0.09,-0.15 0.13,-0.22 v 0 l 0.03,-0.07 v 0 c 0.04,-0.07 0.11,-0.22 0.11,-0.22 l 0.02,-0.04 v 0 l 0.05,-0.13 v 0.01 l 0.08,-0.23 v 0.01 l 0.05,-0.19 v 0.01 l 0.01,-0.04 v 0.01 c 0.02,-0.08 0.05,-0.26 0.05,-0.25 l 0.02,-0.1 v 0 c 0.03,-0.17 0.04,-0.36 0.04,-0.53 V 167.93 c 0,-0.07 0.01,-0.23 0.01,-0.23 l 0.01,-0.09 c 0.01,-0.05 0.02,-0.12 0.03,-0.16 0.02,-0.07 0.04,-0.14 0.07,-0.21 v 0 l 0.02,-0.05 v 0 l 0.04,-0.08 v 0 c 0.05,-0.1 0.1,-0.19 0.18,-0.29 v 0 l 0.04,-0.05 v 0 l 0.03,-0.04 v 0 l 0.16,-0.17 v 0 l 0.05,-0.04 v 0 l 0.13,-0.1 v 0 c 4.89,-3.34 11.84,-6.85 17.14,-9.91 1.17,1.19 3.02,1.48 4.54,0.62 1.79,-1.04 2.39,-3.31 1.37,-5.11 -1.04,-1.79 -3.31,-2.39 -5.11,-1.37 -1.51,0.88 -2.18,2.63 -1.73,4.24 l -16.95,9.79 c -1.18,0.69 -1.87,1.87 -1.87,3.24 V 361 v 0 0.04 0 0.08 -0.01 l -0.02,0.18 v -0.01 l -0.01,0.04 v -0.02 l -0.02,0.09 v -0.01 l -0.01,0.03 v -0.01 l -0.01,0.05 v -0.01 l -0.03,0.1 c 0,-0.03 0,0.01 -0.01,0.02 v -0.01 l -0.04,0.11 v 0 l -0.02,0.05 v 0 l -0.01,0.02 v -0.01 l -0.03,0.07 v 0 l -0.02,0.05 v 0 l -0.02,0.03 v 0 0.01 0 l -0.01,0.03 v 0 l -0.03,0.05 v 0 l -0.02,0.03 v 0 l -0.01,0.02 v 0 l -0.01,0.02 v -0.01 l -0.04,0.06 0.01,-0.01 -0.02,0.03 0.01,-0.01 -0.03,0.03 0.01,-0.01 -0.09,0.11 0.01,-0.01 -0.05,0.05 0.01,-0.01 -0.07,0.07 0.01,-0.01 c -19.62,20.16 -41.39,42.83 -61.85,61.85 -0.01,0.01 -0.04,0.04 -0.02,0.02 l -0.05,0.05 0.01,-0.01 c -0.05,0.04 -0.1,0.08 -0.16,0.12 l 0.01,-0.01 -0.06,0.04 h 0.01 l -0.02,0.01 v 0 l -0.02,0.01 v 0 l -0.03,0.02 v 0 l -0.05,0.03 v 0 l -0.03,0.01 v 0 l -0.03,0.02 v 0 l -0.11,0.05 h 0.01 l -0.02,0.01 v 0 l -0.07,0.03 h 0.01 l -0.02,0.01 h 0.01 l -0.1,0.03 h 0.01 l -0.1,0.03 h 0.01 l -0.03,0.01 h 0.01 l -0.14,0.03 h 0.02 l -0.09,0.01 h 0.01 l -0.13,0.01 h 0.01 -0.08 v 0 h -0.04 v 0 H 200.36 c -0.17,0 -0.36,0.01 -0.53,0.04 v 0 l -0.1,0.01 c -0.09,0.01 -0.18,0.03 -0.26,0.05 h 0.01 c -0.16,0.04 -0.31,0.08 -0.46,0.14 h 0.01 l -0.13,0.05 v 0 l -0.04,0.02 v 0 c -0.07,0.03 -0.15,0.07 -0.22,0.11 v 0 l -0.07,0.03 v 0 c -0.07,0.04 -0.15,0.08 -0.22,0.13 v 0 l -0.03,0.02 v 0 l -0.08,0.05 0.01,-0.01 -0.05,0.03 v 0 c -17.75,12.65 -50.87,52.11 -69.62,69.54 -0.01,0.01 -0.04,0.04 -0.02,0.02 l -0.05,0.05 0.01,-0.01 c -0.05,0.04 -0.1,0.08 -0.16,0.12 l 0.01,-0.01 -0.06,0.04 h 0.01 l -0.02,0.01 v 0 l -0.02,0.01 v 0 l -0.03,0.02 v 0 l -0.05,0.03 v 0 l -0.03,0.01 v 0 l -0.03,0.02 v 0 l -0.11,0.05 h 0.01 l -0.02,0.01 v 0 l -0.07,0.03 h 0.01 l -0.02,0.01 h 0.01 l -0.1,0.03 h 0.01 l -0.1,0.03 h 0.01 l -0.03,0.01 h 0.01 l -0.14,0.03 h 0.02 l -0.09,0.01 h 0.01 l -0.13,0.01 h 0.01 -0.08 v 0 h -0.04 v 0 H 8.77 c -0.42,-1.72 -1.89,-2.91 -3.63,-2.91 z"
         fill="#00ff64"
         id="path1-3" /></g></g></svg>
