<?xml version="1.0" encoding="UTF-8" standalone="no"?>
<!-- Created with Inkscape (http://www.inkscape.org/) -->

<svg
   width="154.287mm"
   height="73.759537mm"
   viewBox="0 0 154.287 73.759539"
   version="1.1"
   id="svg1"
   xml:space="preserve"
   inkscape:version="1.3.2 (091e20e, 2023-11-25, custom)"
   sodipodi:docname="Oficina do Celular.svg"
   xmlns:inkscape="http://www.inkscape.org/namespaces/inkscape"
   xmlns:sodipodi="http://sodipodi.sourceforge.net/DTD/sodipodi-0.dtd"
   xmlns="http://www.w3.org/2000/svg"
   xmlns:svg="http://www.w3.org/2000/svg"><sodipodi:namedview
     id="namedview1"
     pagecolor="#505050"
     bordercolor="#eeeeee"
     borderopacity="1"
     inkscape:showpageshadow="0"
     inkscape:pageopacity="0"
     inkscape:pagecheckerboard="0"
     inkscape:deskcolor="#505050"
     inkscape:document-units="mm"
     showgrid="false"
     showguides="true"
     inkscape:lockguides="false"
     inkscape:zoom="0.49620511"
     inkscape:cx="1171.8944"
     inkscape:cy="2262.1694"
     inkscape:window-width="1366"
     inkscape:window-height="697"
     inkscape:window-x="-8"
     inkscape:window-y="-8"
     inkscape:window-maximized="1"
     inkscape:current-layer="layer1"><inkscape:grid
       id="grid32"
       units="mm"
       originx="568.82127"
       originy="-167.42591"
       spacingx="0.99999998"
       spacingy="1"
       empcolor="#0099e5"
       empopacity="0.30196078"
       color="#0099e5"
       opacity="0.14901961"
       empspacing="5"
       dotted="false"
       gridanglex="30"
       gridanglez="30"
       visible="false" /><sodipodi:guide
       position="-4.3833054,749.32332"
       orientation="0,-1"
       id="guide32"
       inkscape:locked="false" /><sodipodi:guide
       position="-11.818705,680.46913"
       orientation="1,0"
       id="guide33"
       inkscape:locked="false" /><sodipodi:guide
       position="555.16545,437.05878"
       orientation="0,-1"
       id="guide34"
       inkscape:locked="false" /><sodipodi:guide
       position="159.73399,671.79724"
       orientation="1,0"
       id="guide35"
       inkscape:locked="false" /><sodipodi:guide
       position="263.82313,636.28202"
       orientation="0,-1"
       id="guide75"
       inkscape:locked="false" /><sodipodi:guide
       position="405.12474,537.10428"
       orientation="0,-1"
       id="guide76"
       inkscape:locked="false" /><sodipodi:guide
       position="264.88955,718.39692"
       orientation="1,0"
       id="guide80"
       inkscape:locked="false" /><sodipodi:guide
       position="441.91648,482.71651"
       orientation="1,0"
       id="guide91"
       inkscape:locked="false" /><sodipodi:guide
       position="411.21904,336.98664"
       orientation="0,-1"
       id="guide97"
       inkscape:locked="false" /><sodipodi:guide
       position="643.34566,446.76965"
       orientation="1,0"
       id="guide3"
       inkscape:locked="false" /></sodipodi:namedview><defs
     id="defs1" /><g
     inkscape:label="Camada 1"
     inkscape:groupmode="layer"
     id="layer1"
     transform="translate(568.82134,-167.42581)"><g
       id="g74"
       transform="translate(2.1328233,1.0663772)"
       inkscape:export-filename="logo.svg"
       inkscape:export-xdpi="600"
       inkscape:export-ydpi="600"><path
         d="m -510.28084,210.51824 c -0.29104,-0.16005 -0.73488,-0.54338 -0.9863,-0.85185 l -0.45714,-0.56084 -0.006,-20.43489 -0.006,-20.43489 0.77186,-0.86407 0.77187,-0.86407 11.80527,-0.0741 11.80527,-0.0741 0.85292,0.40474 c 0.46911,0.2226 1.03003,0.67266 1.24648,1.00013 l 0.39356,0.59539 0.0905,4.17979 c 0.0498,2.29888 0.0356,4.32294 -0.0316,4.49791 l -0.12206,0.31813 -1.35662,-0.0917 -1.35661,-0.0917 v -1.82641 -1.82655 h -11.1125 -11.1125 v 15.08125 15.08125 h 11.1125 11.1125 v -1.85208 -1.85209 h 1.41584 1.41585 l 0.0536,4.07539 0.0536,4.07538 -0.3903,0.93413 -0.3903,0.93413 -0.80145,0.41444 -0.80146,0.41445 -11.72095,-0.008 -11.72095,-0.008 z m 13.66839,-1.73406 c 0.24158,-0.20847 0.51199,-0.66895 0.60093,-1.0233 l 0.1617,-0.64427 -0.3927,-0.75941 c -0.42169,-0.81545 -0.88917,-1.08811 -1.86561,-1.08811 h -0.61629 l -0.70315,0.83564 -0.70315,0.83565 0.17173,0.68423 c 0.42407,1.68962 2.07103,2.26029 3.34654,1.15957 z m 2.20661,-38.83697 v -0.52916 l -3.33472,-0.0738 -3.33472,-0.0738 -0.32608,0.3929 -0.32608,0.3929 0.17535,0.28371 0.17534,0.28371 3.48546,-0.0737 3.48545,-0.0737 z m 2.99612,0.0434 0.0857,-0.44189 -0.44313,-0.17005 -0.44314,-0.17005 -0.22274,0.36041 -0.22275,0.36041 0.28916,0.34842 c 0.36305,0.43744 0.84437,0.29296 0.9569,-0.28725 z m 4.34607,28.48865 -0.33073,-0.13345 v -1.25475 -1.25475 l -0.6365,-0.59796 -0.63649,-0.59795 -0.48798,0.26296 c -0.2684,0.14462 -0.77663,0.57154 -1.12942,0.94871 -0.8452,0.9036 -1.32992,0.86507 -2.34937,-0.18674 -1.04534,-1.07852 -1.05226,-1.41802 -0.0507,-2.4866 l 0.79252,-0.84555 v -0.64341 c 0,-0.91004 -0.46825,-1.19383 -2.12468,-1.28767 l -1.44719,-0.082 -0.0807,-1.41054 -0.0807,-1.41054 0.31155,-0.3754 0.31156,-0.3754 h 1.28442 1.28442 l 0.44274,-0.67571 0.44275,-0.67572 -0.96581,-0.98909 c -0.5312,-0.54399 -0.96582,-1.18051 -0.96582,-1.41449 0,-0.49366 1.7525,-2.3304 2.22352,-2.3304 0.17518,0 0.71961,0.41382 1.20984,0.91961 l 0.89133,0.91962 0.68193,-0.16309 c 0.93612,-0.22388 0.9269,-0.20767 1.07732,-1.89515 l 0.13377,-1.50079 1.56296,-0.0806 1.56296,-0.0806 0.21892,0.34518 c 0.12042,0.18984 0.22076,0.91327 0.22298,1.60762 l 0.004,1.26244 0.65286,0.29746 0.65286,0.29747 1.06769,-0.9646 c 0.58723,-0.53052 1.23209,-0.96459 1.43302,-0.96459 0.37397,0 2.27898,1.94774 2.27898,2.33011 0,0.11655 -0.41672,0.61582 -0.92604,1.10947 l -0.92604,0.89756 v 0.57716 c 0,0.84237 0.49917,1.12933 2.12469,1.22142 l 1.44718,0.082 v 1.71979 1.71979 l -1.321,0.0833 -1.321,0.0833 -0.46493,0.42076 c -0.64927,0.58758 -0.58011,1.19712 0.22081,1.94628 0.37717,0.35279 0.80515,0.863 0.95107,1.13381 l 0.26531,0.49239 -1.00476,1.02897 c -0.55262,0.56593 -1.19645,1.02897 -1.43073,1.02897 -0.23429,0 -0.77344,-0.36268 -1.19812,-0.80595 l -0.77215,-0.80595 -0.79871,0.0783 -0.7987,0.0784 -0.13508,1.45521 c -0.0743,0.80036 -0.23014,1.60403 -0.34634,1.78594 l -0.21127,0.33072 -1.24116,-0.0209 c -0.68263,-0.0115 -1.38998,-0.0809 -1.57188,-0.15434 z m 3.86524,-7.343 0.88869,-0.88254 0.13297,-1.17973 0.13297,-1.17973 -0.43919,-0.8493 c -0.24155,-0.46711 -0.82036,-1.08171 -1.28623,-1.36577 l -0.84706,-0.51648 -1.00532,-9.9e-4 c -1.26004,-0.001 -2.34556,0.54838 -2.97232,1.50492 l -0.48434,0.73921 -0.018,1.2388 -0.018,1.2388 0.54797,0.7475 c 0.30139,0.41112 0.95623,0.96139 1.45521,1.22283 l 0.90723,0.47533 1.05834,-0.15516 1.05833,-0.15516 z"
         style="fill:#00ff65;fill-opacity:1"
         id="path1" /><g
         id="g32"
         transform="matrix(1.152024,0,0,1.152024,-39.184058,-116.73856)"
         style="stroke:#00ff65;stroke-opacity:1"><ellipse
           style="fill:none;stroke:#00ff65;stroke-width:1.03898;stroke-dasharray:none;stroke-opacity:1"
           id="path5"
           cx="-457.12357"
           cy="298.08386"
           rx="3.9533241"
           ry="3.938628" /><g
           id="g7"
           transform="matrix(0.89052978,0,0,0.90988039,-43.614476,18.161983)"
           style="fill:#000000;fill-opacity:1;stroke:#00ff65;stroke-width:0.7;stroke-dasharray:none;stroke-opacity:1"><rect
             style="fill:#00ff65;fill-opacity:1;stroke:#00ff65;stroke-width:0.63409;stroke-dasharray:none;stroke-opacity:1"
             id="rect6"
             width="4.5723295"
             height="0.69459826"
             x="-457.94647"
             y="307.72623" /><rect
             style="fill:#00ff65;fill-opacity:1;stroke:#00ff65;stroke-width:0.7;stroke-dasharray:none;stroke-opacity:1"
             id="rect7"
             width="0.84980929"
             height="4.1157427"
             x="-457.89722"
             y="308.08084" /><rect
             style="fill:#00ff65;fill-opacity:1;stroke:#00ff65;stroke-width:0.63409;stroke-dasharray:none;stroke-opacity:1"
             id="rect8"
             width="4.5723295"
             height="0.69459826"
             x="-457.94647"
             y="304.46188" /></g><rect
           style="fill:#000000;fill-opacity:1;stroke:#00ff65;stroke-width:0.691415;stroke-dasharray:none;stroke-opacity:1"
           id="rect8-6"
           width="6.9166665"
           height="0.545946"
           x="-302.19629"
           y="-444.6506"
           transform="rotate(-90)" /><path
           id="path9"
           style="fill:none;stroke:#00ff65;stroke-width:0.894177;stroke-dasharray:none;stroke-opacity:1"
           d="m -436.08381,301.30719 a 3.4023575,3.3897097 0 0 1 -2.1806,0.78771 3.4023575,3.3897097 0 0 1 -3.40236,-3.38972 3.4023575,3.3897097 0 0 1 3.40236,-3.3897 3.4023575,3.3897097 0 0 1 2.23431,0.83333" /><rect
           style="fill:#000000;fill-opacity:1;stroke:#00ff65;stroke-width:0.691415;stroke-dasharray:none;stroke-opacity:1"
           id="rect9"
           width="6.9166665"
           height="0.545946"
           x="-302.19629"
           y="-433.54993"
           transform="rotate(-90)" /><g
           id="g12"
           transform="matrix(0.86593075,0,0,0.86593075,-54.486762,40.718704)"
           style="stroke:#00ff65;stroke-opacity:1"><rect
             style="fill:#000000;fill-opacity:1;stroke:#00ff65;stroke-width:0.798464;stroke-dasharray:none;stroke-opacity:1"
             id="rect10"
             width="7.9875517"
             height="0.63047302"
             x="-301.92194"
             y="-434.28641"
             transform="rotate(-90)" /><rect
             style="fill:#000000;fill-opacity:1;stroke:#00ff65;stroke-width:0.910175;stroke-dasharray:none;stroke-opacity:1"
             id="rect11"
             width="9.1462688"
             height="0.71544379"
             x="72.395973"
             y="-523.56036"
             transform="matrix(-0.63275869,-0.77434904,0.7301232,-0.68331552,0,0)" /><rect
             style="fill:#000000;fill-opacity:1;stroke:#00ff65;stroke-width:0.798464;stroke-dasharray:none;stroke-opacity:1"
             id="rect12"
             width="7.9875517"
             height="0.63047302"
             x="-301.92194"
             y="-427.8212"
             transform="rotate(-90)" /></g><path
           d="m -422.05622,300.71576 c 0.34445,-0.7684 1.05044,-2.29944 1.56888,-3.4023 l 0.94262,-2.0052 0.31173,0.0601 0.31173,0.0601 1.49674,3.25771 c 0.82321,1.79173 1.49674,3.28916 1.49674,3.32763 0,0.0384 -0.12085,0.0699 -0.26856,0.0699 h -0.26855 l -1.40927,-3.10345 -1.40928,-3.10347 -0.21055,0.49214 c -0.11581,0.27069 -0.74077,1.64421 -1.38879,3.05227 l -1.17824,2.56011 -0.31073,0.0659 -0.31073,0.0658 z"
           style="fill:none;stroke:#00ff65;stroke-width:0.619266;stroke-dasharray:none;stroke-opacity:1"
           id="path1-1" /><ellipse
           style="fill:none;stroke:#00ff65;stroke-width:1.02267;stroke-dasharray:none;stroke-opacity:1"
           id="ellipse15"
           cx="-396.90543"
           cy="298.15384"
           rx="3.8912799"
           ry="3.8768144" /><path
           style="fill:none;fill-opacity:1;stroke:#00ff65;stroke-width:1.043;stroke-dasharray:none;stroke-opacity:1"
           d="m -407.98376,297.87805 v 4.04769 c 0,0 6.77012,1.01595 6.34779,-3.66491 -0.39458,-4.04296 -3.80615,-3.95059 -6.86941,-3.95059"
           id="path20"
           sodipodi:nodetypes="ccsc" /><path
           id="path21"
           style="fill:none;stroke:#00ff65;stroke-width:1.01939;stroke-dasharray:none;stroke-opacity:1"
           d="m -380.32537,301.13427 a 3.8788108,3.8643917 0 0 1 -2.48596,0.89802 3.8788108,3.8643917 0 0 1 -3.87881,-3.8644 3.8788108,3.8643917 0 0 1 3.87881,-3.86439 3.8788108,3.8643917 0 0 1 2.5472,0.95004" /><g
           id="g24"
           transform="matrix(0.91015493,0,0,0.91015493,-34.153443,13.326788)"
           style="stroke:#00ff65;stroke-opacity:1"><rect
             style="fill:#000000;fill-opacity:1;stroke:#00ff65;stroke-width:0.76379;stroke-dasharray:none;stroke-opacity:1"
             id="rect8-5"
             width="6.0555973"
             height="0.76095849"
             x="-377.39462"
             y="308.39044" /><rect
             style="fill:#000000;fill-opacity:1;stroke:#00ff65;stroke-width:0.76379;stroke-dasharray:none;stroke-opacity:1"
             id="rect23"
             width="6.0555973"
             height="0.76095849"
             x="-377.39462"
             y="312.38956" /><rect
             style="fill:#000000;fill-opacity:1;stroke:#00ff65;stroke-width:0.76379;stroke-dasharray:none;stroke-opacity:1"
             id="rect24"
             width="6.0555973"
             height="0.76095849"
             x="-377.39462"
             y="316.62195" /></g><g
           id="g28"
           transform="translate(0,0.22082093)"
           style="stroke:#00ff65;stroke-opacity:1"><rect
             style="fill:#000000;fill-opacity:1;stroke:#00ff65;stroke-width:0.798464;stroke-dasharray:none;stroke-opacity:1"
             id="rect25"
             width="7.9875517"
             height="0.63047302"
             x="-301.92194"
             y="-369.03696"
             transform="rotate(-90)" /><rect
             style="fill:#000000;fill-opacity:1;stroke:#00ff65;stroke-width:0.715454;stroke-dasharray:none;stroke-opacity:1"
             id="rect26"
             width="5.6669388"
             height="0.71348345"
             x="363.37387"
             y="-301.9613"
             transform="scale(-1)" /></g><g
           id="g27"
           transform="matrix(0.92351027,0,0,0.92351027,-27.990477,23.325615)"
           style="stroke:#00ff65;stroke-opacity:1"><path
             style="fill:none;fill-opacity:1;stroke:#00ff65;stroke-width:1.178;stroke-dasharray:none;stroke-opacity:1"
             d="m -361.32746,292.98885 c 0,0 -1.88291,8.68137 3.43254,8.76469"
             id="path26" /><path
             style="fill:none;fill-opacity:1;stroke:#00ff65;stroke-width:1.178;stroke-dasharray:none;stroke-opacity:1"
             d="m -354.52785,292.98296 c 0,0 1.88291,8.68137 -3.43254,8.76469"
             id="path27" /></g><g
           id="g29"
           transform="translate(17.249534,0.22082093)"
           style="stroke:#00ff65;stroke-opacity:1"><rect
             style="fill:#000000;fill-opacity:1;stroke:#00ff65;stroke-width:0.798464;stroke-dasharray:none;stroke-opacity:1"
             id="rect28"
             width="7.9875517"
             height="0.63047302"
             x="-301.92194"
             y="-369.03696"
             transform="rotate(-90)" /><rect
             style="fill:#000000;fill-opacity:1;stroke:#00ff65;stroke-width:0.715454;stroke-dasharray:none;stroke-opacity:1"
             id="rect29"
             width="5.6669388"
             height="0.71348345"
             x="363.37387"
             y="-301.9613"
             transform="scale(-1)" /></g><path
           d="m -343.74898,300.45512 c 0.39363,-0.87814 1.20045,-2.62782 1.79292,-3.88818 l 1.07724,-2.29157 0.35625,0.0686 0.35625,0.0686 1.71048,3.72292 c 0.94076,2.04761 1.71049,3.75889 1.71049,3.80285 0,0.044 -0.13811,0.0798 -0.30692,0.0798 h -0.3069 l -1.61052,-3.54667 -1.61053,-3.54666 -0.24062,0.56243 c -0.13236,0.30934 -0.84655,1.87901 -1.58714,3.48816 l -1.34648,2.92572 -0.35511,0.0753 -0.35511,0.0752 z"
           style="fill:none;stroke:#00ff65;stroke-width:0.707702;stroke-dasharray:none;stroke-opacity:1"
           id="path29" /><g
           id="g31"
           transform="translate(0,-0.22254689)"
           style="stroke:#00ff65;stroke-opacity:1"><path
             style="fill:none;fill-opacity:1;stroke:#00ff65;stroke-width:1.10504;stroke-dasharray:none;stroke-opacity:1"
             d="m -334.32089,294.14424 c 0,0 6.38847,-0.91738 6.09003,2.53108 -0.2984,3.44844 -5.39086,2.77439 -5.39086,2.77439 v 2.88475"
             id="path30"
             sodipodi:nodetypes="cscc" /><path
             style="fill:none;fill-opacity:1;stroke:#00ff65;stroke-width:1.10504;stroke-dasharray:none;stroke-opacity:1"
             d="m -331.09142,299.3011 2.06685,3.16107"
             id="path31" /></g></g><text
         xml:space="preserve"
         style="font-style:normal;font-variant:normal;font-weight:normal;font-stretch:normal;font-size:5.64444px;font-family:'Microsoft YaHei';-inkscape-font-specification:'Microsoft YaHei';letter-spacing:0.709626px;fill:#00ff65;fill-opacity:1;stroke:none;stroke-width:0.789867;stroke-dasharray:none;stroke-opacity:1"
         x="-562.7843"
         y="238.68304"
         id="text73"><tspan
           sodipodi:role="line"
           id="tspan73"
           style="font-style:normal;font-variant:normal;font-weight:normal;font-stretch:normal;font-size:5.64444px;font-family:'Microsoft YaHei';-inkscape-font-specification:'Microsoft YaHei';letter-spacing:0.709626px;fill:#00ff65;fill-opacity:1;stroke:none;stroke-width:0.789867"
           x="-562.7843"
           y="238.68304">Assistência técnica e acessórios em geral</tspan></text></g></g></svg>
